<svg xmlns="http://www.w3.org/2000/svg" xmlns:xlink="http://www.w3.org/1999/xlink" preserveAspectRatio="xMidYMid" width="100" height="72" viewBox="0 0 100 72">
  <defs>
    <style>

      .cls-2 {
        fill: #737373;
        filter: url(#color-overlay-1);
      }
    </style>

    <filter id="color-overlay-1" filterUnits="userSpaceOnUse">
      <feFlood flood-color="#a4c58c" flood-opacity="1"/>
      <feComposite operator="in" in2="SourceGraphic"/>
      <feBlend mode="normal" in2="SourceGraphic" result="colorOverlay"/>
    </filter>
  </defs>
  <path d="M24.420,0.054 C29.413,-0.025 34.595,0.101 38.688,1.128 C40.722,1.638 42.510,1.666 44.356,2.299 C45.705,2.762 47.145,3.379 48.362,4.057 C48.946,4.381 49.391,5.066 50.121,5.228 C50.462,4.746 50.988,4.578 51.489,4.252 C53.254,3.102 55.490,2.392 57.744,1.714 C58.601,1.456 59.292,1.555 60.187,1.323 C61.989,0.856 64.305,0.793 66.246,0.348 C66.767,0.348 67.288,0.348 67.809,0.348 C69.036,0.082 70.688,0.457 72.109,0.152 C73.004,-0.040 74.732,-0.047 75.627,0.152 C77.042,0.468 78.702,0.073 79.927,0.348 C80.448,0.348 80.969,0.348 81.490,0.348 C82.497,0.579 83.697,0.473 84.813,0.738 C87.384,1.347 90.091,1.661 92.337,2.495 C95.018,3.489 97.721,4.507 99.178,6.692 C100.028,7.968 99.862,10.213 99.862,12.353 C99.862,16.322 99.862,20.293 99.862,24.261 C99.862,34.086 99.862,43.914 99.862,53.739 C99.862,59.432 99.999,65.390 99.764,70.918 C99.207,71.363 98.932,71.981 98.103,72.188 C97.482,72.342 96.768,71.918 96.344,71.798 C95.172,71.465 93.864,71.471 92.728,71.211 C91.460,70.922 90.093,71.078 88.917,70.821 C88.429,70.821 87.940,70.821 87.451,70.821 C86.599,70.636 85.450,70.847 84.422,70.626 C82.550,70.222 80.058,70.334 77.972,70.333 C75.782,70.331 73.158,69.898 71.132,70.333 C70.277,70.517 69.128,70.273 68.395,70.431 C67.549,70.431 66.701,70.431 65.855,70.431 C64.721,70.674 63.134,70.583 62.043,70.821 C60.904,70.886 59.763,70.951 58.623,71.016 C56.637,71.463 54.437,71.330 52.369,71.798 C51.620,71.966 50.363,72.409 49.437,72.188 C46.932,71.587 43.904,71.597 41.326,71.016 C39.943,70.704 38.416,70.906 37.124,70.626 C35.724,70.561 34.323,70.496 32.922,70.431 C32.401,70.431 31.880,70.431 31.359,70.431 C30.064,70.154 27.591,70.111 26.277,70.333 C25.575,70.452 24.370,70.176 23.639,70.333 C21.391,70.366 19.143,70.398 16.896,70.431 C15.899,70.645 14.633,70.376 13.476,70.626 C10.832,71.197 7.749,71.000 5.267,71.602 C3.502,72.030 1.323,72.618 0.381,71.211 C-0.235,70.292 0.088,67.854 0.088,66.429 C0.088,62.362 0.088,58.294 0.088,54.228 C0.088,38.872 0.088,23.512 0.088,8.156 C0.418,7.864 0.436,7.273 0.674,6.887 C1.009,6.345 1.634,5.608 2.140,5.228 C5.020,3.063 8.593,2.174 12.694,1.128 C15.377,0.444 18.390,0.760 21.196,0.152 C22.122,-0.049 23.705,0.506 24.420,0.054 ZM22.759,4.252 C22.368,4.481 21.632,4.231 21.098,4.350 C19.913,4.610 18.644,4.352 17.384,4.642 C12.554,5.755 7.294,5.858 4.290,8.742 C4.290,22.991 4.290,37.245 4.290,51.495 C4.290,55.366 4.290,59.239 4.290,63.110 C4.290,63.938 4.107,67.096 4.290,67.405 C4.395,67.478 4.382,67.463 4.583,67.502 C5.287,67.041 6.472,67.321 7.417,67.112 C8.961,66.770 10.921,66.869 12.498,66.526 C13.117,66.526 13.736,66.526 14.355,66.526 C15.447,66.292 16.892,66.603 18.166,66.331 C20.153,65.907 22.739,66.136 25.007,66.135 C33.303,66.135 40.621,66.812 47.776,67.697 C48.192,66.431 47.874,63.668 47.874,62.133 C47.874,58.035 47.874,53.934 47.874,49.836 C47.874,36.204 47.874,22.568 47.874,8.937 C47.795,8.822 47.798,8.773 47.776,8.546 C41.722,4.689 32.699,4.327 22.759,4.252 ZM52.076,67.697 C53.874,67.584 56.023,67.307 57.744,66.917 C59.095,66.610 60.595,66.802 61.848,66.526 C62.402,66.526 62.956,66.526 63.509,66.526 C64.981,66.209 66.971,66.464 68.493,66.135 C71.066,66.135 73.640,66.135 76.213,66.135 C83.107,66.135 89.620,66.744 95.660,67.502 C95.660,47.885 95.660,28.261 95.660,8.644 C95.297,8.411 95.053,7.972 94.683,7.766 C93.665,7.199 92.633,7.029 91.458,6.594 C86.781,4.864 80.778,4.253 74.454,4.252 C70.006,4.251 65.574,4.283 61.946,5.228 C61.281,5.401 60.848,5.237 60.187,5.423 C57.206,6.260 54.022,6.876 52.076,8.742 C52.076,28.391 52.076,48.047 52.076,67.697 ZM14.160,21.821 C19.892,21.821 25.626,21.821 31.359,21.821 C34.559,21.821 37.434,21.066 37.417,24.457 C36.940,24.988 36.808,25.662 36.049,25.921 C34.837,26.334 32.150,26.019 30.675,26.019 C26.701,26.019 22.726,26.019 18.753,26.019 C15.471,26.019 12.567,26.779 12.596,23.285 C12.924,22.939 13.071,22.379 13.476,22.114 C13.709,21.960 13.968,21.994 14.160,21.821 ZM64.193,21.821 C69.926,21.821 75.660,21.821 81.392,21.821 C83.327,21.821 86.538,21.351 87.060,22.798 C88.191,23.945 86.898,25.922 85.497,25.921 C84.897,26.299 81.414,26.019 80.415,26.019 C76.051,26.019 71.685,26.019 67.320,26.019 C65.301,26.019 63.021,26.271 62.825,24.457 C61.894,23.298 63.690,22.257 64.193,21.821 ZM14.160,34.315 C19.892,34.315 25.626,34.315 31.359,34.315 C34.565,34.315 37.434,33.552 37.417,36.950 C36.937,37.487 36.808,38.147 36.049,38.415 C34.868,38.832 32.128,38.512 30.675,38.512 C26.701,38.512 22.726,38.512 18.753,38.512 C15.476,38.512 12.567,39.265 12.596,35.779 C12.897,35.463 13.019,34.962 13.378,34.706 C13.622,34.531 13.946,34.510 14.160,34.315 ZM64.291,34.315 C70.023,34.315 75.758,34.315 81.490,34.315 C84.465,34.315 87.434,33.720 87.451,36.755 C86.971,37.385 86.875,38.101 86.083,38.415 C85.054,38.823 82.316,38.512 81.002,38.512 C77.028,38.512 73.053,38.512 69.079,38.512 C66.733,38.512 63.056,39.089 62.825,36.950 C62.486,36.532 62.740,36.013 62.825,35.487 C63.056,35.308 63.102,34.981 63.314,34.803 C63.586,34.575 64.011,34.537 64.291,34.315 ZM14.160,46.809 C19.403,46.809 24.649,46.809 29.893,46.809 C31.880,46.809 33.867,46.809 35.854,46.809 C36.679,47.066 36.895,47.728 37.417,48.274 C37.430,49.695 37.055,50.555 36.049,50.909 C34.808,51.346 31.905,51.006 30.381,51.006 C26.603,51.006 22.824,51.006 19.046,51.006 C17.651,51.006 15.103,51.302 13.964,50.909 C13.268,50.668 13.051,50.021 12.596,49.542 C12.553,47.432 13.128,47.720 14.160,46.809 ZM64.291,46.809 C70.023,46.809 75.758,46.809 81.490,46.809 C84.470,46.809 87.434,46.208 87.451,49.249 C86.979,49.868 86.883,50.625 86.083,50.909 C84.927,51.319 82.232,51.006 80.806,51.006 C76.898,51.006 72.988,51.006 69.079,51.006 C66.733,51.006 63.056,51.583 62.825,49.445 C62.486,49.026 62.740,48.508 62.825,47.981 C63.039,47.816 63.034,47.579 63.216,47.395 C63.492,47.117 63.984,47.058 64.291,46.809 Z" id="path-1" class="cls-2" fill-rule="evenodd"/>
</svg>
