<svg xmlns="http://www.w3.org/2000/svg" xmlns:xlink="http://www.w3.org/1999/xlink" preserveAspectRatio="xMidYMid" width="85" height="73" viewBox="0 0 85 73">
  <defs>
    <style>

      .cls-2 {
        fill: #737373;
        filter: url(#color-overlay-1);
      }
    </style>

    <filter id="color-overlay-1" filterUnits="userSpaceOnUse">
      <feFlood flood-color="#a4c58c" flood-opacity="1"/>
      <feComposite operator="in" in2="SourceGraphic"/>
      <feBlend mode="normal" in2="SourceGraphic" result="colorOverlay"/>
    </filter>
  </defs>
  <path d="M41.824,-0.000 C43.212,-0.030 43.861,0.608 44.754,1.074 C46.258,1.859 47.782,2.556 49.246,3.320 C53.262,5.416 57.336,7.188 61.355,9.277 C62.885,10.072 64.472,10.805 66.043,11.621 C66.512,11.864 67.106,12.340 67.605,12.500 C72.878,12.500 78.153,12.500 83.426,12.500 C83.664,12.778 83.993,12.863 84.207,13.183 C84.698,13.806 84.500,15.428 84.500,16.504 C84.500,19.368 84.500,22.233 84.500,25.098 C84.500,36.262 84.500,47.429 84.500,58.594 C84.500,61.718 84.500,64.844 84.500,67.968 C84.500,69.449 84.706,70.981 83.816,71.582 C83.007,72.219 80.464,71.875 79.129,71.875 C75.028,71.875 70.925,71.875 66.824,71.875 C50.875,71.875 34.921,71.875 18.973,71.875 C14.351,71.875 9.727,71.875 5.105,71.875 C3.494,71.875 0.933,72.222 0.320,71.191 C-0.211,70.297 0.125,67.970 0.125,66.699 C0.125,62.923 0.125,59.146 0.125,55.371 C0.125,41.440 0.125,27.505 0.125,13.574 C0.487,13.202 0.827,12.862 1.199,12.500 C6.472,12.500 11.747,12.500 17.019,12.500 C17.387,12.380 17.845,11.997 18.191,11.816 C19.309,11.234 20.435,10.717 21.512,10.156 C24.824,8.431 28.201,6.879 31.473,5.176 C33.881,3.921 36.331,2.795 38.699,1.562 C39.672,1.056 41.059,0.739 41.824,-0.000 ZM42.117,3.320 C41.406,4.146 39.178,4.817 38.113,5.371 C34.965,7.008 31.689,8.612 28.543,10.254 C27.798,10.642 24.423,12.019 24.148,12.500 C36.256,12.500 48.368,12.500 60.476,12.500 C60.476,12.435 60.476,12.370 60.476,12.305 C59.289,12.147 56.966,10.621 55.887,10.058 C52.645,8.367 49.365,6.960 46.121,5.273 C45.068,4.726 43.340,3.480 42.117,3.320 ZM3.250,15.625 C3.250,33.331 3.250,51.043 3.250,68.750 C29.289,68.750 55.336,68.750 81.375,68.750 C81.375,51.043 81.375,33.331 81.375,15.625 C55.336,15.625 29.289,15.625 3.250,15.625 ZM59.891,24.999 C65.925,24.927 68.907,27.420 70.926,31.347 C71.741,32.934 72.472,35.867 71.805,38.281 C71.443,39.590 70.928,40.948 70.242,41.992 C69.905,42.505 69.113,43.003 68.875,43.554 C68.875,49.511 68.875,55.469 68.875,61.426 C68.513,61.798 68.173,62.138 67.801,62.499 C67.249,62.498 66.797,62.512 66.433,62.304 C66.108,61.946 65.782,61.588 65.457,61.230 C64.480,60.286 63.504,59.342 62.527,58.398 C62.055,57.926 61.682,57.138 60.867,57.031 C59.142,58.789 57.416,60.547 55.691,62.304 C55.328,62.511 54.876,62.499 54.324,62.499 C54.167,62.313 54.154,62.447 53.933,62.304 C53.637,62.114 53.495,61.676 53.250,61.426 C53.250,55.469 53.250,49.511 53.250,43.554 C51.104,42.042 49.176,36.584 50.516,32.812 C51.376,30.390 52.800,28.323 54.715,26.953 C55.616,26.308 56.834,25.781 57.937,25.390 C58.532,25.180 59.398,25.323 59.891,24.999 ZM13.699,28.125 C23.399,28.125 33.101,28.125 42.801,28.125 C43.032,28.377 43.511,28.509 43.680,28.808 C44.130,29.607 43.756,30.592 43.191,30.957 C42.382,31.601 37.880,31.250 36.355,31.250 C30.366,31.250 24.376,31.250 18.387,31.250 C15.684,31.250 12.618,32.088 12.625,29.199 C12.798,29.055 12.775,28.880 12.918,28.711 C13.126,28.464 13.492,28.373 13.699,28.125 ZM60.086,28.125 C59.370,28.320 58.653,28.515 57.937,28.711 C56.028,29.650 54.422,31.243 53.640,33.300 C52.297,36.836 54.105,39.835 55.789,41.601 C55.952,41.829 56.114,42.057 56.277,42.285 C56.712,42.547 57.634,42.836 58.328,43.164 C59.104,43.530 60.686,44.082 62.039,43.749 C64.951,43.036 66.859,41.821 68.094,39.453 C70.758,34.342 66.922,29.541 63.015,28.320 C62.177,28.058 61.143,28.114 60.086,28.125 ZM13.699,34.375 C20.274,34.375 26.851,34.375 33.426,34.375 C34.547,34.748 34.856,36.513 33.816,37.207 C33.106,37.776 29.947,37.500 28.641,37.500 C24.800,37.500 20.958,37.500 17.117,37.500 C14.698,37.500 12.612,37.977 12.625,35.449 C12.987,35.077 13.327,34.736 13.699,34.375 ZM13.699,40.625 C20.274,40.625 26.851,40.625 33.426,40.625 C33.582,40.812 33.595,40.678 33.816,40.820 C34.112,41.011 34.255,41.448 34.500,41.699 C34.532,42.607 34.343,43.118 33.816,43.457 C33.106,44.027 29.947,43.749 28.641,43.749 C24.800,43.749 20.958,43.749 17.117,43.749 C14.698,43.749 12.612,44.228 12.625,41.699 C12.870,41.448 13.012,41.011 13.309,40.820 C13.529,40.678 13.543,40.811 13.699,40.625 ZM56.375,45.898 C56.375,49.608 56.375,53.320 56.375,57.031 C56.440,57.031 56.505,57.031 56.570,57.031 C57.245,55.991 58.434,55.167 59.305,54.297 C59.676,53.925 60.051,53.322 60.574,53.125 C60.900,53.125 61.225,53.125 61.551,53.125 C62.474,54.029 63.470,54.848 64.383,55.761 C64.797,56.176 65.153,56.817 65.750,57.031 C65.750,53.320 65.750,49.608 65.750,45.898 C64.115,46.154 62.255,47.423 59.891,46.875 C58.790,46.619 57.322,46.003 56.375,45.898 ZM17.508,55.664 C16.784,55.650 16.086,55.149 15.750,55.273 C15.507,55.557 15.396,56.063 15.066,56.250 C13.871,56.926 13.162,55.951 12.625,55.371 C12.530,52.437 13.727,50.226 14.969,48.535 C15.927,47.229 17.407,48.097 17.898,49.218 C18.573,49.004 19.007,48.942 19.754,49.121 C19.944,49.406 20.327,49.659 20.437,50.000 C20.437,51.562 20.437,53.125 20.437,54.687 C20.503,54.687 20.568,54.687 20.633,54.687 C20.633,54.622 20.633,54.557 20.633,54.492 C21.139,53.795 20.976,52.921 21.707,52.441 C21.995,52.202 22.336,52.146 22.879,52.148 C23.374,52.592 23.737,52.660 24.051,53.320 C24.539,52.995 25.027,52.669 25.515,52.343 C25.976,52.142 26.507,52.124 26.980,51.953 C27.219,51.311 27.489,50.809 28.348,50.781 C28.516,50.678 28.930,50.728 29.129,50.878 C29.637,51.038 29.988,51.486 30.008,52.148 C30.494,53.183 28.779,55.063 27.957,55.273 C27.413,55.412 27.073,55.018 26.590,55.273 C25.912,55.631 25.361,56.465 24.637,56.836 C24.098,57.112 23.301,56.999 22.781,57.324 C21.918,58.251 21.813,59.398 19.949,59.375 C19.805,59.204 19.631,59.224 19.461,59.082 C18.544,58.317 17.705,57.126 17.508,55.664 Z" id="path-1" class="cls-2" fill-rule="evenodd"/>
</svg>
