<svg xmlns="http://www.w3.org/2000/svg" xmlns:xlink="http://www.w3.org/1999/xlink" preserveAspectRatio="xMidYMid" width="88" height="88" viewBox="0 0 88 88">
  <defs>
    <style>

      .cls-2 {
        fill: #737373;
        filter: url(#color-overlay-1);
      }
    </style>

    <filter id="color-overlay-1" filterUnits="userSpaceOnUse">
      <feFlood flood-color="#a4c58c" flood-opacity="1"/>
      <feComposite operator="in" in2="SourceGraphic"/>
      <feBlend mode="normal" in2="SourceGraphic" result="colorOverlay"/>
    </filter>
  </defs>
  <path d="M57.418,-0.000 C57.743,-0.000 58.069,-0.000 58.394,-0.000 C58.551,0.187 58.564,0.053 58.785,0.195 C59.081,0.386 59.224,0.823 59.469,1.074 C59.571,6.869 57.961,10.636 55.562,13.867 C55.062,14.541 54.566,15.321 53.902,15.820 C53.014,16.488 52.129,17.192 51.168,17.773 C50.750,18.026 50.170,18.069 49.898,18.456 C49.651,18.810 49.610,19.243 49.410,19.628 C48.687,21.021 48.095,22.440 47.359,23.925 C45.814,27.048 44.136,30.509 43.062,33.984 C43.128,33.984 43.193,33.984 43.258,33.984 C43.967,32.931 45.175,32.013 46.187,31.250 C46.898,30.714 47.518,29.927 48.238,29.394 C50.080,28.030 51.930,26.829 53.902,25.585 C55.201,24.767 56.367,23.460 58.394,23.437 C58.880,24.028 59.392,24.123 59.469,25.195 C58.874,26.009 58.759,27.094 58.297,28.027 C57.030,30.583 56.027,33.443 54.879,36.133 C54.976,36.133 55.074,36.133 55.172,36.133 C55.552,35.360 57.272,34.330 58.004,33.789 C60.172,32.184 62.088,30.121 64.254,28.516 C64.976,27.979 67.093,26.663 67.379,25.879 C67.543,25.444 67.074,24.022 67.281,23.144 C67.665,21.521 68.071,20.080 68.844,18.847 C70.207,16.675 72.486,15.088 75.191,14.258 C79.017,13.083 83.618,15.662 85.055,17.578 C85.861,18.653 86.734,19.915 87.203,21.289 C89.404,27.732 84.064,32.905 79.586,34.179 C77.825,34.681 76.009,34.042 74.410,33.984 C73.729,34.847 71.925,35.585 71.480,36.523 C73.104,36.523 74.938,37.110 76.363,37.500 C80.189,38.547 85.382,39.357 87.203,42.285 C87.791,43.230 87.594,45.167 87.594,46.679 C87.593,51.687 88.037,53.795 84.469,55.468 C84.557,59.774 83.228,63.629 81.930,66.699 C78.007,75.975 70.899,84.756 60.543,87.499 C54.749,87.499 48.954,87.499 43.160,87.499 C37.822,87.499 32.482,87.499 27.144,87.499 C25.864,87.119 24.427,86.718 23.238,86.133 C14.825,81.992 8.592,74.636 5.172,65.527 C4.350,63.338 3.986,60.938 3.414,58.496 C3.349,57.487 3.284,56.478 3.219,55.468 C2.958,55.338 2.698,55.208 2.437,55.078 C1.743,54.591 0.933,53.854 0.484,53.125 C-0.308,51.837 0.094,47.651 0.094,45.605 C0.094,44.759 0.094,43.912 0.094,43.066 C0.516,41.684 1.702,40.943 2.828,40.234 C6.286,38.056 10.889,37.444 15.523,36.328 C17.188,35.927 18.882,36.029 20.504,35.645 C21.122,35.498 22.071,35.731 22.359,35.254 C21.443,34.238 21.127,32.534 20.601,31.152 C19.430,28.074 18.818,24.651 17.867,21.191 C17.802,20.573 17.737,19.954 17.672,19.336 C17.183,17.306 16.754,15.590 19.527,15.624 C20.056,16.071 20.936,15.960 21.676,16.211 C23.465,16.816 25.329,17.509 26.949,18.359 C33.110,21.595 37.311,26.480 38.863,34.374 C39.091,34.374 39.319,34.374 39.547,34.374 C42.209,29.634 39.967,22.629 38.277,18.750 C31.619,18.553 26.989,15.109 24.215,10.937 C23.334,9.613 21.969,7.941 21.969,5.859 C22.244,5.550 22.294,5.218 22.652,4.980 C23.124,4.599 24.129,4.669 24.996,4.687 C26.767,4.724 28.630,5.062 30.074,5.468 C34.854,6.814 38.480,8.664 40.133,13.086 C40.442,13.914 40.518,14.950 40.719,15.820 C40.719,16.178 40.719,16.536 40.719,16.894 C41.244,18.212 42.142,19.655 42.672,21.093 C42.921,21.768 43.198,24.227 43.648,24.512 C43.727,23.995 44.043,23.623 44.234,23.242 C44.648,22.419 44.787,21.613 45.211,20.800 C45.739,19.789 46.552,18.612 46.969,17.578 C46.969,16.829 46.969,16.080 46.969,15.332 C47.435,13.296 47.466,11.257 48.141,9.472 C49.325,6.341 51.354,3.548 53.902,1.758 C54.501,1.337 55.296,0.873 55.953,0.586 C56.467,0.361 57.036,0.343 57.418,-0.000 ZM55.953,4.102 C55.391,4.936 54.220,5.340 53.609,6.152 C52.002,8.289 50.329,10.914 50.289,14.551 C50.354,14.551 50.419,14.551 50.484,14.551 C51.099,13.746 52.212,13.319 52.828,12.500 C54.412,10.394 56.100,7.647 56.148,4.102 C56.083,4.102 56.018,4.102 55.953,4.102 ZM37.398,15.527 C37.245,10.647 30.974,8.447 26.168,7.910 C26.168,7.942 26.168,7.975 26.168,8.007 C26.135,8.007 26.103,8.007 26.070,8.007 C26.070,8.072 26.070,8.138 26.070,8.203 C26.381,8.453 26.421,8.849 26.656,9.179 C27.126,9.842 27.717,10.468 28.219,11.132 C29.675,13.062 34.117,15.373 37.398,15.527 ZM74.312,17.773 C74.476,18.783 75.213,19.659 75.680,20.410 C77.150,22.778 78.554,24.448 80.855,25.976 C81.348,26.303 83.335,27.745 83.785,27.344 C84.697,26.222 84.589,23.384 84.078,21.972 C83.104,19.283 81.823,18.141 78.902,17.383 C78.373,17.245 77.168,16.988 76.363,17.187 C75.698,17.351 74.995,17.663 74.312,17.773 ZM20.797,19.336 C20.828,21.228 21.661,24.049 22.164,25.684 C23.764,30.880 25.160,35.766 28.805,38.867 C29.414,39.385 29.955,40.224 30.660,40.625 C31.087,40.868 31.589,40.790 32.027,41.015 C32.560,41.290 32.940,41.811 33.590,41.992 C33.590,41.927 33.590,41.862 33.590,41.797 C32.918,40.947 32.655,39.740 32.125,38.769 C30.922,36.564 29.478,34.352 28.023,32.324 C27.153,31.111 25.097,29.502 25.094,27.636 C25.700,26.983 25.798,26.539 27.144,26.562 C29.734,29.164 31.897,32.359 33.883,35.546 C34.316,36.243 35.532,39.173 36.031,39.453 C36.031,38.476 36.031,37.500 36.031,36.523 C35.765,36.086 35.982,35.451 35.836,34.863 C35.441,33.278 35.144,31.548 34.469,30.176 C32.394,25.963 29.332,23.256 25.191,21.093 C23.978,20.459 22.437,19.426 20.797,19.336 ZM81.441,29.882 C80.436,29.698 79.621,28.922 78.902,28.417 C76.987,27.074 75.275,25.523 73.922,23.632 C73.457,22.983 72.205,20.180 71.578,20.019 C71.289,21.046 70.699,21.965 70.406,23.242 C70.223,24.038 70.459,25.152 70.601,25.684 C71.376,28.583 72.493,29.897 75.191,30.859 C75.902,31.112 77.274,31.518 78.414,31.250 C79.557,30.981 80.474,30.453 81.441,30.176 C81.441,30.078 81.441,29.980 81.441,29.882 ZM54.195,29.004 C53.229,29.986 51.810,30.635 50.680,31.445 C47.891,33.445 45.043,36.331 43.062,39.160 C41.932,40.774 40.762,42.506 40.719,45.215 C40.751,45.215 40.784,45.215 40.816,45.215 C40.816,45.247 40.816,45.280 40.816,45.312 C48.439,43.856 49.592,40.469 52.242,34.179 C52.934,32.537 53.925,30.757 54.390,29.004 C54.325,29.004 54.260,29.004 54.195,29.004 ZM42.281,49.999 C44.003,50.021 46.210,50.236 47.750,49.902 C48.435,49.754 49.362,50.094 49.898,49.804 C50.174,49.656 50.425,49.212 50.680,49.023 C51.863,48.146 52.939,47.149 54.098,46.289 C57.499,43.765 60.652,40.998 64.058,38.476 C64.460,38.179 65.550,37.390 65.816,37.011 C66.032,36.705 66.087,36.322 66.402,36.133 C66.746,35.925 67.161,35.961 67.476,35.742 C68.346,35.138 69.069,34.227 69.918,33.593 C70.407,33.229 71.254,32.828 71.480,32.226 C70.497,31.886 69.096,30.042 68.648,29.101 C67.157,29.972 66.008,31.410 64.644,32.421 C60.536,35.470 56.825,38.934 52.730,41.992 C51.068,43.233 49.715,44.985 47.945,46.094 C46.154,47.215 44.243,47.523 42.086,48.339 C42.252,48.801 42.286,49.336 42.281,49.999 ZM23.043,38.476 C22.577,38.751 21.913,38.524 21.285,38.672 C19.943,38.986 18.432,38.904 16.988,39.258 C13.646,40.076 10.159,40.518 7.223,41.601 C6.042,42.037 3.701,42.451 3.316,43.554 C2.909,44.304 6.129,46.027 7.320,45.703 C9.674,45.063 12.453,44.741 15.035,44.140 C15.361,44.140 15.686,44.140 16.012,44.140 C17.750,43.739 19.930,43.762 21.676,43.359 C22.034,43.359 22.392,43.359 22.750,43.359 C23.907,43.093 25.435,43.039 26.558,42.773 C27.231,42.614 27.749,42.895 28.121,42.480 C26.843,41.721 25.078,39.763 24.312,38.476 C23.889,38.476 23.466,38.476 23.043,38.476 ZM68.160,39.160 C67.590,39.729 66.862,40.140 66.207,40.625 C65.597,41.076 65.059,41.735 64.449,42.187 C64.040,42.490 63.503,42.685 63.277,43.164 C63.635,43.164 63.993,43.164 64.351,43.164 C65.175,43.668 68.135,43.461 69.332,43.750 C71.535,44.281 73.951,44.294 76.168,44.922 C77.356,45.258 78.810,45.735 79.976,45.996 C81.064,46.238 84.371,44.478 84.469,43.554 C84.241,43.294 84.013,43.034 83.785,42.773 C82.347,41.893 80.689,41.787 78.902,41.210 C75.691,40.175 71.824,39.621 68.160,39.160 ZM59.762,45.898 C59.205,46.424 58.527,46.806 57.906,47.266 C57.464,47.593 57.079,48.109 56.637,48.437 C56.170,48.784 55.429,49.068 55.172,49.609 C55.855,49.609 56.539,49.609 57.223,49.609 C58.037,49.121 61.185,49.488 62.398,49.219 C63.566,48.959 64.926,49.122 66.207,48.828 C68.438,48.316 70.922,48.200 73.140,47.754 C73.140,47.721 73.140,47.689 73.140,47.656 C73.043,47.624 72.945,47.591 72.848,47.558 C72.071,47.088 70.561,47.315 69.527,47.070 C67.295,46.540 64.542,46.608 62.203,46.094 C61.333,45.902 60.474,46.141 59.762,45.898 ZM21.969,46.484 C21.509,46.770 20.851,46.534 20.211,46.679 C18.378,47.097 15.864,47.438 13.863,47.461 C13.863,47.526 13.863,47.591 13.863,47.656 C16.044,47.981 18.225,48.307 20.406,48.632 C20.951,47.824 22.384,47.232 22.750,46.484 C22.489,46.484 22.229,46.484 21.969,46.484 ZM30.660,47.070 C30.331,47.279 29.959,47.143 29.488,47.266 C28.403,47.548 27.183,47.802 26.168,48.242 C23.857,49.244 21.990,50.906 20.992,53.223 C20.687,53.931 20.795,54.543 20.601,55.371 C20.427,56.115 20.163,57.763 20.406,58.789 C20.601,59.611 20.768,60.769 20.992,61.523 C21.421,62.967 21.654,64.217 22.164,65.429 C22.368,65.915 22.296,66.465 22.750,66.699 C23.209,65.244 24.471,63.966 25.289,62.793 C27.686,59.356 30.103,55.942 33.492,53.515 C34.318,52.924 35.447,52.317 36.422,51.953 C37.117,51.693 37.715,51.651 38.277,51.269 C38.570,50.911 38.863,50.553 39.156,50.195 C39.211,49.057 38.883,47.422 37.887,47.363 C37.068,48.008 35.095,48.490 34.078,49.023 C31.752,50.243 29.309,52.018 27.828,54.101 C26.826,55.510 26.987,57.794 24.605,57.812 C24.006,57.130 23.512,57.164 23.531,55.761 C24.022,55.204 24.115,54.257 24.508,53.613 C24.997,52.810 25.601,52.025 26.168,51.269 C26.742,50.504 28.401,49.006 29.195,48.437 C29.775,48.022 30.825,47.716 31.148,47.070 C30.986,47.070 30.823,47.070 30.660,47.070 ZM3.219,47.656 C3.208,49.038 3.078,50.738 3.316,51.953 C5.360,53.107 7.510,53.837 9.957,54.687 C11.142,55.099 12.451,55.147 13.570,55.468 C14.026,55.600 17.164,55.974 17.183,55.956 C17.539,55.532 17.299,54.958 17.476,54.296 C17.721,53.386 18.138,52.457 18.355,51.562 C18.323,51.562 18.290,51.562 18.258,51.562 C18.258,51.529 18.258,51.497 18.258,51.464 C16.840,51.438 15.371,51.099 14.156,50.781 C13.603,50.716 13.049,50.651 12.496,50.586 C10.461,50.034 8.275,49.741 6.344,49.023 C5.317,48.642 4.278,47.870 3.219,47.656 ZM84.273,47.656 C83.903,47.994 83.501,47.995 83.004,48.242 C81.024,49.225 78.509,49.712 76.168,50.390 C75.572,50.563 75.223,50.423 74.605,50.586 C72.614,51.109 70.146,51.254 68.062,51.758 C67.118,51.823 66.174,51.888 65.230,51.953 C63.780,52.291 61.824,52.201 60.348,52.539 C59.729,52.539 59.110,52.539 58.492,52.539 C57.636,52.729 56.357,52.630 55.465,52.832 C54.846,52.832 54.228,52.832 53.609,52.832 C52.816,53.008 51.594,52.727 50.680,52.929 C48.038,53.513 43.655,53.122 40.621,53.125 C39.722,54.244 38.389,54.397 37.008,55.078 C36.271,55.441 35.594,55.985 34.957,56.445 C34.498,56.776 33.799,57.051 33.590,57.617 C34.501,57.617 35.413,57.617 36.324,57.617 C36.979,58.026 38.401,57.534 39.254,57.715 C40.130,57.900 41.437,57.812 42.476,57.812 C44.397,57.812 46.318,57.812 48.238,57.812 C49.092,57.802 50.457,57.795 51.266,57.617 C52.848,57.268 54.644,57.732 56.051,57.422 C57.047,57.202 58.155,57.410 58.980,57.227 C59.534,57.227 60.087,57.227 60.641,57.227 C62.109,56.897 63.995,56.971 65.426,56.640 C66.832,56.315 68.155,56.584 69.527,56.250 C72.022,55.643 74.827,55.387 77.144,54.687 C77.640,54.538 77.919,54.644 78.414,54.492 C79.958,54.018 81.574,53.401 82.906,52.734 C83.495,52.440 84.138,52.392 84.371,51.758 C84.685,51.262 84.480,48.485 84.469,47.656 C84.404,47.656 84.338,47.656 84.273,47.656 ZM6.539,56.836 C6.194,57.909 6.836,59.987 7.125,60.937 C7.542,62.309 7.619,63.479 8.101,64.746 C8.839,66.683 9.894,68.519 10.836,70.214 C14.429,76.682 19.834,82.045 27.535,84.375 C33.622,84.375 39.710,84.375 45.797,84.375 C50.581,84.375 55.368,84.375 60.152,84.375 C68.641,81.786 74.211,75.654 77.926,68.261 C79.537,65.054 80.915,61.428 81.246,56.933 C81.213,56.933 81.181,56.933 81.148,56.933 C81.148,56.901 81.148,56.868 81.148,56.836 C78.487,57.952 75.177,58.243 72.164,58.984 C70.964,59.279 69.964,59.088 68.746,59.375 C66.254,59.961 63.233,59.766 60.641,60.351 C60.120,60.351 59.599,60.351 59.078,60.351 C57.674,60.661 55.772,60.606 54.293,60.742 C53.447,60.742 52.600,60.742 51.754,60.742 C50.025,61.120 47.297,60.937 45.308,60.937 C42.216,60.905 39.123,60.872 36.031,60.840 C35.269,60.671 34.082,60.937 33.199,60.742 C32.448,60.576 31.566,60.548 30.660,60.547 C30.109,61.507 29.237,62.293 28.609,63.184 C27.667,64.519 26.944,65.880 26.070,67.285 C25.739,67.817 25.204,68.393 24.898,68.945 C24.179,70.243 24.036,71.896 21.969,71.875 C20.021,69.904 19.020,66.146 18.062,63.184 C17.780,62.309 17.770,59.884 17.379,59.277 C17.379,59.245 17.379,59.212 17.379,59.179 C15.361,59.174 12.767,58.504 11.031,58.008 C9.434,57.551 7.907,57.469 6.539,56.836 ZM69.918,62.500 C70.243,62.500 70.569,62.500 70.894,62.500 C71.051,62.687 71.064,62.552 71.285,62.695 C71.581,62.886 71.724,63.324 71.969,63.574 C72.003,65.530 71.020,67.683 70.406,69.140 C68.352,74.019 66.294,77.745 61.715,80.078 C60.499,80.697 57.755,81.747 55.562,81.250 C53.413,80.762 51.452,80.374 49.703,79.492 C49.111,79.193 48.469,78.523 47.848,78.320 C47.131,78.320 46.415,78.320 45.699,78.320 C42.909,77.697 37.553,77.734 37.594,74.511 C38.200,73.858 38.298,73.415 39.644,73.437 C40.625,74.579 45.636,75.532 47.945,75.097 C48.480,73.660 50.914,72.172 52.144,71.289 C55.925,68.575 60.351,66.497 64.840,64.453 C66.170,63.847 67.570,63.442 68.844,62.890 C69.283,62.700 69.610,62.783 69.918,62.500 ZM67.867,66.601 C67.021,67.321 65.575,67.455 64.547,67.968 C61.726,69.378 58.813,70.666 56.246,72.265 C55.214,72.908 53.703,73.434 53.023,74.414 C53.186,74.414 53.349,74.414 53.512,74.414 C53.921,74.107 54.506,74.194 55.074,74.023 C56.271,73.663 57.221,73.149 58.687,73.242 C58.895,73.518 59.219,73.867 59.469,74.121 C59.499,74.821 59.430,75.083 59.273,75.683 C57.774,76.594 55.639,77.078 53.707,77.538 C53.707,77.604 53.707,77.669 53.707,77.734 C54.430,77.767 55.134,77.959 55.758,78.125 C56.938,78.438 58.596,78.004 59.371,77.734 C62.932,76.494 64.597,74.348 66.207,71.191 C66.713,70.199 67.214,69.031 67.672,67.968 C67.798,67.676 68.060,66.812 67.965,66.699 C67.965,66.666 67.965,66.634 67.965,66.601 C67.932,66.601 67.900,66.601 67.867,66.601 Z" id="path-1" class="cls-2" fill-rule="evenodd"/>
</svg>
