<svg
  xmlns="http://www.w3.org/2000/svg" 
  xmlns:xlink="http://www.w3.org/1999/xlink"
  width="16" height="16">
<path fill-rule="evenodd" fill="rgb(115, 115, 115)"
  d="M2.482,0.002 C3.526,-0.008 3.836,0.516 4.344,1.024 C4.873,1.554 5.403,2.083 5.932,2.612 C6.229,2.909 6.401,3.046 6.534,3.525 C6.562,3.623 6.608,3.850 6.571,3.999 C6.449,4.497 6.164,4.734 5.859,5.040 C5.683,5.223 5.506,5.405 5.330,5.587 C5.211,5.706 4.853,5.973 4.819,6.135 C4.899,6.220 4.935,6.346 5.001,6.445 C5.134,6.645 5.295,6.834 5.439,7.029 C5.598,7.244 5.827,7.420 5.987,7.632 C6.395,8.171 6.979,8.721 7.520,9.129 C7.599,9.187 7.661,9.288 7.739,9.348 C7.959,9.511 8.165,9.668 8.396,9.822 C8.514,9.900 8.624,10.022 8.798,10.041 C8.957,9.800 9.234,9.605 9.437,9.403 C9.859,8.980 10.203,8.455 10.879,8.289 C11.135,8.226 11.429,8.329 11.572,8.398 C12.184,8.694 12.577,9.239 13.033,9.694 C13.416,10.077 13.799,10.461 14.182,10.845 C14.359,11.021 14.607,11.186 14.712,11.428 C14.776,11.577 14.819,11.763 14.858,11.921 C14.904,12.108 14.869,12.438 14.821,12.578 C14.666,13.029 14.135,13.411 13.817,13.728 C13.543,14.003 13.310,14.314 12.941,14.495 C12.651,14.638 12.291,14.702 11.956,14.787 C11.438,14.918 10.609,14.874 10.130,14.750 C10.027,14.738 9.923,14.726 9.820,14.714 C9.489,14.619 9.129,14.558 8.816,14.422 C8.340,14.215 7.870,14.010 7.429,13.765 C7.179,13.626 6.931,13.429 6.680,13.290 C4.531,12.092 2.622,10.096 1.424,7.942 C1.295,7.712 1.124,7.476 0.986,7.248 C0.802,6.946 0.691,6.620 0.547,6.281 C0.029,5.054 -0.285,3.150 0.401,1.827 C0.561,1.519 0.877,1.297 1.113,1.060 C1.375,0.793 1.637,0.525 1.898,0.258 C1.987,0.193 2.110,0.118 2.208,0.075 C2.299,0.036 2.414,0.060 2.482,0.002 ZM2.592,0.805 C2.528,0.854 2.437,0.868 2.373,0.915 C2.093,1.200 1.813,1.486 1.533,1.772 C1.392,1.914 1.180,2.056 1.095,2.247 C0.386,3.845 1.112,5.922 1.789,7.029 C2.310,7.882 2.848,8.696 3.431,9.475 C3.524,9.598 3.667,9.699 3.760,9.822 C3.924,10.039 4.109,10.260 4.326,10.424 C4.393,10.475 4.426,10.574 4.490,10.625 C4.759,10.839 4.984,11.114 5.257,11.319 C5.576,11.558 5.881,11.820 6.206,12.049 C6.821,12.482 7.481,12.849 8.159,13.217 C9.027,13.689 10.544,14.323 11.937,13.947 C12.155,13.889 12.332,13.886 12.521,13.801 C12.771,13.690 12.925,13.489 13.106,13.308 C13.398,13.022 13.690,12.736 13.982,12.450 C14.013,12.407 14.019,12.360 14.055,12.323 C14.059,11.632 13.736,11.547 13.398,11.209 C13.282,11.094 13.185,10.960 13.069,10.845 C12.710,10.485 12.333,10.144 11.974,9.786 C11.804,9.616 11.447,9.121 11.189,9.092 C10.959,8.952 10.607,9.364 10.514,9.457 C10.149,9.816 9.783,10.175 9.418,10.534 C9.313,10.639 9.112,10.921 8.962,10.953 C8.859,10.879 8.683,10.899 8.561,10.845 C8.326,10.740 8.075,10.589 7.867,10.443 C6.820,9.707 5.727,8.689 4.965,7.668 C4.571,7.140 4.017,6.660 3.906,5.861 C4.146,5.704 4.376,5.392 4.581,5.186 C4.932,4.835 5.295,4.502 5.622,4.127 C5.634,4.127 5.646,4.127 5.658,4.127 C5.765,4.002 5.782,3.813 5.768,3.616 C5.714,3.573 5.700,3.508 5.658,3.452 C5.538,3.289 5.314,3.107 5.166,2.959 C4.679,2.485 4.192,2.009 3.705,1.535 C3.402,1.232 3.195,0.806 2.592,0.805 Z"/>
</svg>
